# xmcd
#
# Track frame offsets: 
#        150
#        28529
#        55925
#        80610
#        120480
#        151760
#        176370
#        196305
#        223662
#        243750
#
# Disc length: 3594 seconds
#
# Revision: 0
# Processed by: cddbd v1.5.2PL0 Copyright (c) Steve Scherf et al.
# Submitted via: ExactAudioCopy v0.99pb5
#
DISCID=770e080a
DTITLE=Eric Clapton  - Flawless Disc 01 (MVR-355) Studio
DYEAR=1900
DGENRE=
TTITLE0=Snakes
TTITLE1=Marcus #1
TTITLE2=Marcus #1
TTITLE3=Full House
TTITLE4=Full House
TTITLE5=Ruthie
TTITLE6=Ruthie
TTITLE7=Put It Where You Want It
TTITLE8=Suggestions
TTITLE9=Peeper
EXTD=
EXTT0=
EXTT1=
EXTT2=
EXTT3=
EXTT4=
EXTT5=
EXTT6=
EXTT7=
EXTT8=
EXTT9=
PLAYORDER=
